%TF.GenerationSoftware,KiCad,Pcbnew,8.0.2*%
%TF.CreationDate,2025-07-12T13:28:42+07:00*%
%TF.ProjectId,Li-Ion Charger Controller,4c692d49-6f6e-4204-9368-617267657220,rev?*%
%TF.SameCoordinates,Original*%
%TF.FileFunction,Legend,Top*%
%TF.FilePolarity,Positive*%
%FSLAX46Y46*%
G04 Gerber Fmt 4.6, Leading zero omitted, Abs format (unit mm)*
G04 Created by KiCad (PCBNEW 8.0.2) date 2025-07-12 13:28:42*
%MOMM*%
%LPD*%
G01*
G04 APERTURE LIST*
%ADD10C,0.100000*%
%ADD11C,0.150000*%
%ADD12C,0.120000*%
%ADD13C,0.250000*%
G04 APERTURE END LIST*
D10*
X151930953Y-101552657D02*
X151978572Y-101505038D01*
X151978572Y-101505038D02*
X152073810Y-101457419D01*
X152073810Y-101457419D02*
X152311905Y-101457419D01*
X152311905Y-101457419D02*
X152407143Y-101505038D01*
X152407143Y-101505038D02*
X152454762Y-101552657D01*
X152454762Y-101552657D02*
X152502381Y-101647895D01*
X152502381Y-101647895D02*
X152502381Y-101743133D01*
X152502381Y-101743133D02*
X152454762Y-101885990D01*
X152454762Y-101885990D02*
X151883334Y-102457419D01*
X151883334Y-102457419D02*
X152502381Y-102457419D01*
X153407143Y-101457419D02*
X152930953Y-101457419D01*
X152930953Y-101457419D02*
X152883334Y-101933609D01*
X152883334Y-101933609D02*
X152930953Y-101885990D01*
X152930953Y-101885990D02*
X153026191Y-101838371D01*
X153026191Y-101838371D02*
X153264286Y-101838371D01*
X153264286Y-101838371D02*
X153359524Y-101885990D01*
X153359524Y-101885990D02*
X153407143Y-101933609D01*
X153407143Y-101933609D02*
X153454762Y-102028847D01*
X153454762Y-102028847D02*
X153454762Y-102266942D01*
X153454762Y-102266942D02*
X153407143Y-102362180D01*
X153407143Y-102362180D02*
X153359524Y-102409800D01*
X153359524Y-102409800D02*
X153264286Y-102457419D01*
X153264286Y-102457419D02*
X153026191Y-102457419D01*
X153026191Y-102457419D02*
X152930953Y-102409800D01*
X152930953Y-102409800D02*
X152883334Y-102362180D01*
X153930953Y-102409800D02*
X153930953Y-102457419D01*
X153930953Y-102457419D02*
X153883334Y-102552657D01*
X153883334Y-102552657D02*
X153835715Y-102600276D01*
X154835714Y-101457419D02*
X154359524Y-101457419D01*
X154359524Y-101457419D02*
X154311905Y-101933609D01*
X154311905Y-101933609D02*
X154359524Y-101885990D01*
X154359524Y-101885990D02*
X154454762Y-101838371D01*
X154454762Y-101838371D02*
X154692857Y-101838371D01*
X154692857Y-101838371D02*
X154788095Y-101885990D01*
X154788095Y-101885990D02*
X154835714Y-101933609D01*
X154835714Y-101933609D02*
X154883333Y-102028847D01*
X154883333Y-102028847D02*
X154883333Y-102266942D01*
X154883333Y-102266942D02*
X154835714Y-102362180D01*
X154835714Y-102362180D02*
X154788095Y-102409800D01*
X154788095Y-102409800D02*
X154692857Y-102457419D01*
X154692857Y-102457419D02*
X154454762Y-102457419D01*
X154454762Y-102457419D02*
X154359524Y-102409800D01*
X154359524Y-102409800D02*
X154311905Y-102362180D01*
X155502381Y-101457419D02*
X155597619Y-101457419D01*
X155597619Y-101457419D02*
X155692857Y-101505038D01*
X155692857Y-101505038D02*
X155740476Y-101552657D01*
X155740476Y-101552657D02*
X155788095Y-101647895D01*
X155788095Y-101647895D02*
X155835714Y-101838371D01*
X155835714Y-101838371D02*
X155835714Y-102076466D01*
X155835714Y-102076466D02*
X155788095Y-102266942D01*
X155788095Y-102266942D02*
X155740476Y-102362180D01*
X155740476Y-102362180D02*
X155692857Y-102409800D01*
X155692857Y-102409800D02*
X155597619Y-102457419D01*
X155597619Y-102457419D02*
X155502381Y-102457419D01*
X155502381Y-102457419D02*
X155407143Y-102409800D01*
X155407143Y-102409800D02*
X155359524Y-102362180D01*
X155359524Y-102362180D02*
X155311905Y-102266942D01*
X155311905Y-102266942D02*
X155264286Y-102076466D01*
X155264286Y-102076466D02*
X155264286Y-101838371D01*
X155264286Y-101838371D02*
X155311905Y-101647895D01*
X155311905Y-101647895D02*
X155359524Y-101552657D01*
X155359524Y-101552657D02*
X155407143Y-101505038D01*
X155407143Y-101505038D02*
X155502381Y-101457419D01*
X156454762Y-101457419D02*
X156550000Y-101457419D01*
X156550000Y-101457419D02*
X156645238Y-101505038D01*
X156645238Y-101505038D02*
X156692857Y-101552657D01*
X156692857Y-101552657D02*
X156740476Y-101647895D01*
X156740476Y-101647895D02*
X156788095Y-101838371D01*
X156788095Y-101838371D02*
X156788095Y-102076466D01*
X156788095Y-102076466D02*
X156740476Y-102266942D01*
X156740476Y-102266942D02*
X156692857Y-102362180D01*
X156692857Y-102362180D02*
X156645238Y-102409800D01*
X156645238Y-102409800D02*
X156550000Y-102457419D01*
X156550000Y-102457419D02*
X156454762Y-102457419D01*
X156454762Y-102457419D02*
X156359524Y-102409800D01*
X156359524Y-102409800D02*
X156311905Y-102362180D01*
X156311905Y-102362180D02*
X156264286Y-102266942D01*
X156264286Y-102266942D02*
X156216667Y-102076466D01*
X156216667Y-102076466D02*
X156216667Y-101838371D01*
X156216667Y-101838371D02*
X156264286Y-101647895D01*
X156264286Y-101647895D02*
X156311905Y-101552657D01*
X156311905Y-101552657D02*
X156359524Y-101505038D01*
X156359524Y-101505038D02*
X156454762Y-101457419D01*
X157407143Y-101457419D02*
X157502381Y-101457419D01*
X157502381Y-101457419D02*
X157597619Y-101505038D01*
X157597619Y-101505038D02*
X157645238Y-101552657D01*
X157645238Y-101552657D02*
X157692857Y-101647895D01*
X157692857Y-101647895D02*
X157740476Y-101838371D01*
X157740476Y-101838371D02*
X157740476Y-102076466D01*
X157740476Y-102076466D02*
X157692857Y-102266942D01*
X157692857Y-102266942D02*
X157645238Y-102362180D01*
X157645238Y-102362180D02*
X157597619Y-102409800D01*
X157597619Y-102409800D02*
X157502381Y-102457419D01*
X157502381Y-102457419D02*
X157407143Y-102457419D01*
X157407143Y-102457419D02*
X157311905Y-102409800D01*
X157311905Y-102409800D02*
X157264286Y-102362180D01*
X157264286Y-102362180D02*
X157216667Y-102266942D01*
X157216667Y-102266942D02*
X157169048Y-102076466D01*
X157169048Y-102076466D02*
X157169048Y-101838371D01*
X157169048Y-101838371D02*
X157216667Y-101647895D01*
X157216667Y-101647895D02*
X157264286Y-101552657D01*
X157264286Y-101552657D02*
X157311905Y-101505038D01*
X157311905Y-101505038D02*
X157407143Y-101457419D01*
X158930953Y-102457419D02*
X158930953Y-101790752D01*
X158930953Y-101885990D02*
X158978572Y-101838371D01*
X158978572Y-101838371D02*
X159073810Y-101790752D01*
X159073810Y-101790752D02*
X159216667Y-101790752D01*
X159216667Y-101790752D02*
X159311905Y-101838371D01*
X159311905Y-101838371D02*
X159359524Y-101933609D01*
X159359524Y-101933609D02*
X159359524Y-102457419D01*
X159359524Y-101933609D02*
X159407143Y-101838371D01*
X159407143Y-101838371D02*
X159502381Y-101790752D01*
X159502381Y-101790752D02*
X159645238Y-101790752D01*
X159645238Y-101790752D02*
X159740477Y-101838371D01*
X159740477Y-101838371D02*
X159788096Y-101933609D01*
X159788096Y-101933609D02*
X159788096Y-102457419D01*
X160264286Y-102457419D02*
X160264286Y-101790752D01*
X160264286Y-101885990D02*
X160311905Y-101838371D01*
X160311905Y-101838371D02*
X160407143Y-101790752D01*
X160407143Y-101790752D02*
X160550000Y-101790752D01*
X160550000Y-101790752D02*
X160645238Y-101838371D01*
X160645238Y-101838371D02*
X160692857Y-101933609D01*
X160692857Y-101933609D02*
X160692857Y-102457419D01*
X160692857Y-101933609D02*
X160740476Y-101838371D01*
X160740476Y-101838371D02*
X160835714Y-101790752D01*
X160835714Y-101790752D02*
X160978571Y-101790752D01*
X160978571Y-101790752D02*
X161073810Y-101838371D01*
X161073810Y-101838371D02*
X161121429Y-101933609D01*
X161121429Y-101933609D02*
X161121429Y-102457419D01*
X169300000Y-100300000D02*
X169300000Y-103686420D01*
X143800000Y-100300000D02*
X143800000Y-103686420D01*
X169300000Y-103100000D02*
X143800000Y-103100000D01*
X169300000Y-103100000D02*
X143800000Y-103100000D01*
X169300000Y-103100000D02*
X168173496Y-103686421D01*
X169300000Y-103100000D02*
X168173496Y-102513579D01*
X143800000Y-103100000D02*
X144926504Y-102513579D01*
X143800000Y-103100000D02*
X144926504Y-103686421D01*
X138457419Y-96597618D02*
X138457419Y-97169046D01*
X138457419Y-96883332D02*
X137457419Y-96883332D01*
X137457419Y-96883332D02*
X137600276Y-96978570D01*
X137600276Y-96978570D02*
X137695514Y-97073808D01*
X137695514Y-97073808D02*
X137743133Y-97169046D01*
X137790752Y-95740475D02*
X138457419Y-95740475D01*
X137409800Y-95978570D02*
X138124085Y-96216665D01*
X138124085Y-96216665D02*
X138124085Y-95597618D01*
X138409800Y-95169046D02*
X138457419Y-95169046D01*
X138457419Y-95169046D02*
X138552657Y-95216665D01*
X138552657Y-95216665D02*
X138600276Y-95264284D01*
X137457419Y-94264285D02*
X137457419Y-94740475D01*
X137457419Y-94740475D02*
X137933609Y-94788094D01*
X137933609Y-94788094D02*
X137885990Y-94740475D01*
X137885990Y-94740475D02*
X137838371Y-94645237D01*
X137838371Y-94645237D02*
X137838371Y-94407142D01*
X137838371Y-94407142D02*
X137885990Y-94311904D01*
X137885990Y-94311904D02*
X137933609Y-94264285D01*
X137933609Y-94264285D02*
X138028847Y-94216666D01*
X138028847Y-94216666D02*
X138266942Y-94216666D01*
X138266942Y-94216666D02*
X138362180Y-94264285D01*
X138362180Y-94264285D02*
X138409800Y-94311904D01*
X138409800Y-94311904D02*
X138457419Y-94407142D01*
X138457419Y-94407142D02*
X138457419Y-94645237D01*
X138457419Y-94645237D02*
X138409800Y-94740475D01*
X138409800Y-94740475D02*
X138362180Y-94788094D01*
X137457419Y-93597618D02*
X137457419Y-93502380D01*
X137457419Y-93502380D02*
X137505038Y-93407142D01*
X137505038Y-93407142D02*
X137552657Y-93359523D01*
X137552657Y-93359523D02*
X137647895Y-93311904D01*
X137647895Y-93311904D02*
X137838371Y-93264285D01*
X137838371Y-93264285D02*
X138076466Y-93264285D01*
X138076466Y-93264285D02*
X138266942Y-93311904D01*
X138266942Y-93311904D02*
X138362180Y-93359523D01*
X138362180Y-93359523D02*
X138409800Y-93407142D01*
X138409800Y-93407142D02*
X138457419Y-93502380D01*
X138457419Y-93502380D02*
X138457419Y-93597618D01*
X138457419Y-93597618D02*
X138409800Y-93692856D01*
X138409800Y-93692856D02*
X138362180Y-93740475D01*
X138362180Y-93740475D02*
X138266942Y-93788094D01*
X138266942Y-93788094D02*
X138076466Y-93835713D01*
X138076466Y-93835713D02*
X137838371Y-93835713D01*
X137838371Y-93835713D02*
X137647895Y-93788094D01*
X137647895Y-93788094D02*
X137552657Y-93740475D01*
X137552657Y-93740475D02*
X137505038Y-93692856D01*
X137505038Y-93692856D02*
X137457419Y-93597618D01*
X137457419Y-92645237D02*
X137457419Y-92549999D01*
X137457419Y-92549999D02*
X137505038Y-92454761D01*
X137505038Y-92454761D02*
X137552657Y-92407142D01*
X137552657Y-92407142D02*
X137647895Y-92359523D01*
X137647895Y-92359523D02*
X137838371Y-92311904D01*
X137838371Y-92311904D02*
X138076466Y-92311904D01*
X138076466Y-92311904D02*
X138266942Y-92359523D01*
X138266942Y-92359523D02*
X138362180Y-92407142D01*
X138362180Y-92407142D02*
X138409800Y-92454761D01*
X138409800Y-92454761D02*
X138457419Y-92549999D01*
X138457419Y-92549999D02*
X138457419Y-92645237D01*
X138457419Y-92645237D02*
X138409800Y-92740475D01*
X138409800Y-92740475D02*
X138362180Y-92788094D01*
X138362180Y-92788094D02*
X138266942Y-92835713D01*
X138266942Y-92835713D02*
X138076466Y-92883332D01*
X138076466Y-92883332D02*
X137838371Y-92883332D01*
X137838371Y-92883332D02*
X137647895Y-92835713D01*
X137647895Y-92835713D02*
X137552657Y-92788094D01*
X137552657Y-92788094D02*
X137505038Y-92740475D01*
X137505038Y-92740475D02*
X137457419Y-92645237D01*
X137457419Y-91692856D02*
X137457419Y-91597618D01*
X137457419Y-91597618D02*
X137505038Y-91502380D01*
X137505038Y-91502380D02*
X137552657Y-91454761D01*
X137552657Y-91454761D02*
X137647895Y-91407142D01*
X137647895Y-91407142D02*
X137838371Y-91359523D01*
X137838371Y-91359523D02*
X138076466Y-91359523D01*
X138076466Y-91359523D02*
X138266942Y-91407142D01*
X138266942Y-91407142D02*
X138362180Y-91454761D01*
X138362180Y-91454761D02*
X138409800Y-91502380D01*
X138409800Y-91502380D02*
X138457419Y-91597618D01*
X138457419Y-91597618D02*
X138457419Y-91692856D01*
X138457419Y-91692856D02*
X138409800Y-91788094D01*
X138409800Y-91788094D02*
X138362180Y-91835713D01*
X138362180Y-91835713D02*
X138266942Y-91883332D01*
X138266942Y-91883332D02*
X138076466Y-91930951D01*
X138076466Y-91930951D02*
X137838371Y-91930951D01*
X137838371Y-91930951D02*
X137647895Y-91883332D01*
X137647895Y-91883332D02*
X137552657Y-91835713D01*
X137552657Y-91835713D02*
X137505038Y-91788094D01*
X137505038Y-91788094D02*
X137457419Y-91692856D01*
X138457419Y-90169046D02*
X137790752Y-90169046D01*
X137885990Y-90169046D02*
X137838371Y-90121427D01*
X137838371Y-90121427D02*
X137790752Y-90026189D01*
X137790752Y-90026189D02*
X137790752Y-89883332D01*
X137790752Y-89883332D02*
X137838371Y-89788094D01*
X137838371Y-89788094D02*
X137933609Y-89740475D01*
X137933609Y-89740475D02*
X138457419Y-89740475D01*
X137933609Y-89740475D02*
X137838371Y-89692856D01*
X137838371Y-89692856D02*
X137790752Y-89597618D01*
X137790752Y-89597618D02*
X137790752Y-89454761D01*
X137790752Y-89454761D02*
X137838371Y-89359522D01*
X137838371Y-89359522D02*
X137933609Y-89311903D01*
X137933609Y-89311903D02*
X138457419Y-89311903D01*
X138457419Y-88835713D02*
X137790752Y-88835713D01*
X137885990Y-88835713D02*
X137838371Y-88788094D01*
X137838371Y-88788094D02*
X137790752Y-88692856D01*
X137790752Y-88692856D02*
X137790752Y-88549999D01*
X137790752Y-88549999D02*
X137838371Y-88454761D01*
X137838371Y-88454761D02*
X137933609Y-88407142D01*
X137933609Y-88407142D02*
X138457419Y-88407142D01*
X137933609Y-88407142D02*
X137838371Y-88359523D01*
X137838371Y-88359523D02*
X137790752Y-88264285D01*
X137790752Y-88264285D02*
X137790752Y-88121428D01*
X137790752Y-88121428D02*
X137838371Y-88026189D01*
X137838371Y-88026189D02*
X137933609Y-87978570D01*
X137933609Y-87978570D02*
X138457419Y-87978570D01*
X143300000Y-85300000D02*
X138513580Y-85300000D01*
X143300000Y-99800000D02*
X138513580Y-99800000D01*
X139100000Y-85300000D02*
X139100000Y-99800000D01*
X139100000Y-85300000D02*
X139100000Y-99800000D01*
X139100000Y-85300000D02*
X139686421Y-86426504D01*
X139100000Y-85300000D02*
X138513579Y-86426504D01*
X139100000Y-99800000D02*
X138513579Y-98673496D01*
X139100000Y-99800000D02*
X139686421Y-98673496D01*
D11*
X162459580Y-92066666D02*
X162507200Y-92114285D01*
X162507200Y-92114285D02*
X162554819Y-92257142D01*
X162554819Y-92257142D02*
X162554819Y-92352380D01*
X162554819Y-92352380D02*
X162507200Y-92495237D01*
X162507200Y-92495237D02*
X162411961Y-92590475D01*
X162411961Y-92590475D02*
X162316723Y-92638094D01*
X162316723Y-92638094D02*
X162126247Y-92685713D01*
X162126247Y-92685713D02*
X161983390Y-92685713D01*
X161983390Y-92685713D02*
X161792914Y-92638094D01*
X161792914Y-92638094D02*
X161697676Y-92590475D01*
X161697676Y-92590475D02*
X161602438Y-92495237D01*
X161602438Y-92495237D02*
X161554819Y-92352380D01*
X161554819Y-92352380D02*
X161554819Y-92257142D01*
X161554819Y-92257142D02*
X161602438Y-92114285D01*
X161602438Y-92114285D02*
X161650057Y-92066666D01*
X162554819Y-91114285D02*
X162554819Y-91685713D01*
X162554819Y-91399999D02*
X161554819Y-91399999D01*
X161554819Y-91399999D02*
X161697676Y-91495237D01*
X161697676Y-91495237D02*
X161792914Y-91590475D01*
X161792914Y-91590475D02*
X161840533Y-91685713D01*
X149954819Y-92599404D02*
X150764342Y-92599404D01*
X150764342Y-92599404D02*
X150859580Y-92551785D01*
X150859580Y-92551785D02*
X150907200Y-92504166D01*
X150907200Y-92504166D02*
X150954819Y-92408928D01*
X150954819Y-92408928D02*
X150954819Y-92218452D01*
X150954819Y-92218452D02*
X150907200Y-92123214D01*
X150907200Y-92123214D02*
X150859580Y-92075595D01*
X150859580Y-92075595D02*
X150764342Y-92027976D01*
X150764342Y-92027976D02*
X149954819Y-92027976D01*
X150954819Y-91027976D02*
X150954819Y-91599404D01*
X150954819Y-91313690D02*
X149954819Y-91313690D01*
X149954819Y-91313690D02*
X150097676Y-91408928D01*
X150097676Y-91408928D02*
X150192914Y-91504166D01*
X150192914Y-91504166D02*
X150240533Y-91599404D01*
X148561905Y-99254819D02*
X148561905Y-98254819D01*
X148561905Y-98254819D02*
X148800000Y-98254819D01*
X148800000Y-98254819D02*
X148942857Y-98302438D01*
X148942857Y-98302438D02*
X149038095Y-98397676D01*
X149038095Y-98397676D02*
X149085714Y-98492914D01*
X149085714Y-98492914D02*
X149133333Y-98683390D01*
X149133333Y-98683390D02*
X149133333Y-98826247D01*
X149133333Y-98826247D02*
X149085714Y-99016723D01*
X149085714Y-99016723D02*
X149038095Y-99111961D01*
X149038095Y-99111961D02*
X148942857Y-99207200D01*
X148942857Y-99207200D02*
X148800000Y-99254819D01*
X148800000Y-99254819D02*
X148561905Y-99254819D01*
X150085714Y-99254819D02*
X149514286Y-99254819D01*
X149800000Y-99254819D02*
X149800000Y-98254819D01*
X149800000Y-98254819D02*
X149704762Y-98397676D01*
X149704762Y-98397676D02*
X149609524Y-98492914D01*
X149609524Y-98492914D02*
X149514286Y-98540533D01*
X162933333Y-99254819D02*
X162600000Y-98778628D01*
X162361905Y-99254819D02*
X162361905Y-98254819D01*
X162361905Y-98254819D02*
X162742857Y-98254819D01*
X162742857Y-98254819D02*
X162838095Y-98302438D01*
X162838095Y-98302438D02*
X162885714Y-98350057D01*
X162885714Y-98350057D02*
X162933333Y-98445295D01*
X162933333Y-98445295D02*
X162933333Y-98588152D01*
X162933333Y-98588152D02*
X162885714Y-98683390D01*
X162885714Y-98683390D02*
X162838095Y-98731009D01*
X162838095Y-98731009D02*
X162742857Y-98778628D01*
X162742857Y-98778628D02*
X162361905Y-98778628D01*
X163885714Y-99254819D02*
X163314286Y-99254819D01*
X163600000Y-99254819D02*
X163600000Y-98254819D01*
X163600000Y-98254819D02*
X163504762Y-98397676D01*
X163504762Y-98397676D02*
X163409524Y-98492914D01*
X163409524Y-98492914D02*
X163314286Y-98540533D01*
X163959580Y-92166666D02*
X164007200Y-92214285D01*
X164007200Y-92214285D02*
X164054819Y-92357142D01*
X164054819Y-92357142D02*
X164054819Y-92452380D01*
X164054819Y-92452380D02*
X164007200Y-92595237D01*
X164007200Y-92595237D02*
X163911961Y-92690475D01*
X163911961Y-92690475D02*
X163816723Y-92738094D01*
X163816723Y-92738094D02*
X163626247Y-92785713D01*
X163626247Y-92785713D02*
X163483390Y-92785713D01*
X163483390Y-92785713D02*
X163292914Y-92738094D01*
X163292914Y-92738094D02*
X163197676Y-92690475D01*
X163197676Y-92690475D02*
X163102438Y-92595237D01*
X163102438Y-92595237D02*
X163054819Y-92452380D01*
X163054819Y-92452380D02*
X163054819Y-92357142D01*
X163054819Y-92357142D02*
X163102438Y-92214285D01*
X163102438Y-92214285D02*
X163150057Y-92166666D01*
X163150057Y-91785713D02*
X163102438Y-91738094D01*
X163102438Y-91738094D02*
X163054819Y-91642856D01*
X163054819Y-91642856D02*
X163054819Y-91404761D01*
X163054819Y-91404761D02*
X163102438Y-91309523D01*
X163102438Y-91309523D02*
X163150057Y-91261904D01*
X163150057Y-91261904D02*
X163245295Y-91214285D01*
X163245295Y-91214285D02*
X163340533Y-91214285D01*
X163340533Y-91214285D02*
X163483390Y-91261904D01*
X163483390Y-91261904D02*
X164054819Y-91833332D01*
X164054819Y-91833332D02*
X164054819Y-91214285D01*
X155133333Y-88554819D02*
X154800000Y-88078628D01*
X154561905Y-88554819D02*
X154561905Y-87554819D01*
X154561905Y-87554819D02*
X154942857Y-87554819D01*
X154942857Y-87554819D02*
X155038095Y-87602438D01*
X155038095Y-87602438D02*
X155085714Y-87650057D01*
X155085714Y-87650057D02*
X155133333Y-87745295D01*
X155133333Y-87745295D02*
X155133333Y-87888152D01*
X155133333Y-87888152D02*
X155085714Y-87983390D01*
X155085714Y-87983390D02*
X155038095Y-88031009D01*
X155038095Y-88031009D02*
X154942857Y-88078628D01*
X154942857Y-88078628D02*
X154561905Y-88078628D01*
X155466667Y-87554819D02*
X156085714Y-87554819D01*
X156085714Y-87554819D02*
X155752381Y-87935771D01*
X155752381Y-87935771D02*
X155895238Y-87935771D01*
X155895238Y-87935771D02*
X155990476Y-87983390D01*
X155990476Y-87983390D02*
X156038095Y-88031009D01*
X156038095Y-88031009D02*
X156085714Y-88126247D01*
X156085714Y-88126247D02*
X156085714Y-88364342D01*
X156085714Y-88364342D02*
X156038095Y-88459580D01*
X156038095Y-88459580D02*
X155990476Y-88507200D01*
X155990476Y-88507200D02*
X155895238Y-88554819D01*
X155895238Y-88554819D02*
X155609524Y-88554819D01*
X155609524Y-88554819D02*
X155514286Y-88507200D01*
X155514286Y-88507200D02*
X155466667Y-88459580D01*
X148561905Y-97854819D02*
X148561905Y-96854819D01*
X148561905Y-96854819D02*
X148800000Y-96854819D01*
X148800000Y-96854819D02*
X148942857Y-96902438D01*
X148942857Y-96902438D02*
X149038095Y-96997676D01*
X149038095Y-96997676D02*
X149085714Y-97092914D01*
X149085714Y-97092914D02*
X149133333Y-97283390D01*
X149133333Y-97283390D02*
X149133333Y-97426247D01*
X149133333Y-97426247D02*
X149085714Y-97616723D01*
X149085714Y-97616723D02*
X149038095Y-97711961D01*
X149038095Y-97711961D02*
X148942857Y-97807200D01*
X148942857Y-97807200D02*
X148800000Y-97854819D01*
X148800000Y-97854819D02*
X148561905Y-97854819D01*
X149514286Y-96950057D02*
X149561905Y-96902438D01*
X149561905Y-96902438D02*
X149657143Y-96854819D01*
X149657143Y-96854819D02*
X149895238Y-96854819D01*
X149895238Y-96854819D02*
X149990476Y-96902438D01*
X149990476Y-96902438D02*
X150038095Y-96950057D01*
X150038095Y-96950057D02*
X150085714Y-97045295D01*
X150085714Y-97045295D02*
X150085714Y-97140533D01*
X150085714Y-97140533D02*
X150038095Y-97283390D01*
X150038095Y-97283390D02*
X149466667Y-97854819D01*
X149466667Y-97854819D02*
X150085714Y-97854819D01*
X162933333Y-97854819D02*
X162600000Y-97378628D01*
X162361905Y-97854819D02*
X162361905Y-96854819D01*
X162361905Y-96854819D02*
X162742857Y-96854819D01*
X162742857Y-96854819D02*
X162838095Y-96902438D01*
X162838095Y-96902438D02*
X162885714Y-96950057D01*
X162885714Y-96950057D02*
X162933333Y-97045295D01*
X162933333Y-97045295D02*
X162933333Y-97188152D01*
X162933333Y-97188152D02*
X162885714Y-97283390D01*
X162885714Y-97283390D02*
X162838095Y-97331009D01*
X162838095Y-97331009D02*
X162742857Y-97378628D01*
X162742857Y-97378628D02*
X162361905Y-97378628D01*
X163314286Y-96950057D02*
X163361905Y-96902438D01*
X163361905Y-96902438D02*
X163457143Y-96854819D01*
X163457143Y-96854819D02*
X163695238Y-96854819D01*
X163695238Y-96854819D02*
X163790476Y-96902438D01*
X163790476Y-96902438D02*
X163838095Y-96950057D01*
X163838095Y-96950057D02*
X163885714Y-97045295D01*
X163885714Y-97045295D02*
X163885714Y-97140533D01*
X163885714Y-97140533D02*
X163838095Y-97283390D01*
X163838095Y-97283390D02*
X163266667Y-97854819D01*
X163266667Y-97854819D02*
X163885714Y-97854819D01*
X151512319Y-92683333D02*
X152226604Y-92683333D01*
X152226604Y-92683333D02*
X152369461Y-92730952D01*
X152369461Y-92730952D02*
X152464700Y-92826190D01*
X152464700Y-92826190D02*
X152512319Y-92969047D01*
X152512319Y-92969047D02*
X152512319Y-93064285D01*
X151607557Y-92254761D02*
X151559938Y-92207142D01*
X151559938Y-92207142D02*
X151512319Y-92111904D01*
X151512319Y-92111904D02*
X151512319Y-91873809D01*
X151512319Y-91873809D02*
X151559938Y-91778571D01*
X151559938Y-91778571D02*
X151607557Y-91730952D01*
X151607557Y-91730952D02*
X151702795Y-91683333D01*
X151702795Y-91683333D02*
X151798033Y-91683333D01*
X151798033Y-91683333D02*
X151940890Y-91730952D01*
X151940890Y-91730952D02*
X152512319Y-92302380D01*
X152512319Y-92302380D02*
X152512319Y-91683333D01*
D12*
%TO.C,C1*%
X156765000Y-91538748D02*
X156765000Y-92061252D01*
X158235000Y-91538748D02*
X158235000Y-92061252D01*
%TO.C,U1*%
X151540000Y-91837500D02*
X151540000Y-91037500D01*
X151540000Y-91837500D02*
X151540000Y-92637500D01*
X154660000Y-91837500D02*
X154660000Y-91037500D01*
X154660000Y-91837500D02*
X154660000Y-92637500D01*
X151590000Y-93137500D02*
X151260000Y-93377500D01*
X151260000Y-92897500D01*
X151590000Y-93137500D01*
G36*
X151590000Y-93137500D02*
G01*
X151260000Y-93377500D01*
X151260000Y-92897500D01*
X151590000Y-93137500D01*
G37*
%TO.C,D1*%
X151400000Y-99235000D02*
X155460000Y-99235000D01*
X155460000Y-96965000D02*
X151400000Y-96965000D01*
X155460000Y-99235000D02*
X155460000Y-96965000D01*
%TO.C,R1*%
X158272936Y-97200000D02*
X159727064Y-97200000D01*
X158272936Y-99020000D02*
X159727064Y-99020000D01*
%TO.C,C2*%
X159665000Y-92061252D02*
X159665000Y-91538748D01*
X161135000Y-92061252D02*
X161135000Y-91538748D01*
%TO.C,R3*%
X158272936Y-87190000D02*
X159727064Y-87190000D01*
X158272936Y-89010000D02*
X159727064Y-89010000D01*
%TO.C,D2*%
X150540000Y-94365000D02*
X150540000Y-96635000D01*
X150540000Y-96635000D02*
X154600000Y-96635000D01*
X154600000Y-94365000D02*
X150540000Y-94365000D01*
%TO.C,R2*%
X158272936Y-94590000D02*
X159727064Y-94590000D01*
X158272936Y-96410000D02*
X159727064Y-96410000D01*
D13*
%TO.C,J2*%
X142267500Y-87980000D02*
X142327500Y-87980000D01*
X142267500Y-88140000D02*
X142267500Y-87980000D01*
X142327500Y-87980000D02*
X142747500Y-88340000D01*
X142327500Y-96430000D02*
X142657500Y-96120000D01*
X142327500Y-96720000D02*
X142327500Y-96430000D01*
X142657500Y-88500000D02*
X142267500Y-88140000D01*
X142657500Y-96120000D02*
X142657500Y-88500000D01*
X142747500Y-96340000D02*
X142327500Y-96720000D01*
X143707500Y-88350000D02*
X142747500Y-88350000D01*
X143707500Y-96350000D02*
X142887500Y-96350000D01*
X148257500Y-88350000D02*
X146277500Y-88350000D01*
X148257500Y-90590000D02*
X148257500Y-88350000D01*
X148257500Y-96350000D02*
X146277500Y-96350000D01*
X148257500Y-96350000D02*
X148257500Y-94100000D01*
%TD*%
M02*
