%TF.GenerationSoftware,KiCad,Pcbnew,8.0.2*%
%TF.CreationDate,2025-07-12T13:28:42+07:00*%
%TF.ProjectId,Li-Ion Charger Controller,4c692d49-6f6e-4204-9368-617267657220,rev?*%
%TF.SameCoordinates,Original*%
%TF.FileFunction,Copper,L1,Top*%
%TF.FilePolarity,Positive*%
%FSLAX46Y46*%
G04 Gerber Fmt 4.6, Leading zero omitted, Abs format (unit mm)*
G04 Created by KiCad (PCBNEW 8.0.2) date 2025-07-12 13:28:42*
%MOMM*%
%LPD*%
G01*
G04 APERTURE LIST*
G04 Aperture macros list*
%AMRoundRect*
0 Rectangle with rounded corners*
0 $1 Rounding radius*
0 $2 $3 $4 $5 $6 $7 $8 $9 X,Y pos of 4 corners*
0 Add a 4 corners polygon primitive as box body*
4,1,4,$2,$3,$4,$5,$6,$7,$8,$9,$2,$3,0*
0 Add four circle primitives for the rounded corners*
1,1,$1+$1,$2,$3*
1,1,$1+$1,$4,$5*
1,1,$1+$1,$6,$7*
1,1,$1+$1,$8,$9*
0 Add four rect primitives between the rounded corners*
20,1,$1+$1,$2,$3,$4,$5,0*
20,1,$1+$1,$4,$5,$6,$7,0*
20,1,$1+$1,$6,$7,$8,$9,0*
20,1,$1+$1,$8,$9,$2,$3,0*%
G04 Aperture macros list end*
%TA.AperFunction,SMDPad,CuDef*%
%ADD10RoundRect,0.250000X-0.475000X0.337500X-0.475000X-0.337500X0.475000X-0.337500X0.475000X0.337500X0*%
%TD*%
%TA.AperFunction,SMDPad,CuDef*%
%ADD11RoundRect,0.150000X0.150000X-0.512500X0.150000X0.512500X-0.150000X0.512500X-0.150000X-0.512500X0*%
%TD*%
%TA.AperFunction,SMDPad,CuDef*%
%ADD12RoundRect,0.250001X0.462499X0.624999X-0.462499X0.624999X-0.462499X-0.624999X0.462499X-0.624999X0*%
%TD*%
%TA.AperFunction,SMDPad,CuDef*%
%ADD13RoundRect,0.250000X-0.400000X-0.625000X0.400000X-0.625000X0.400000X0.625000X-0.400000X0.625000X0*%
%TD*%
%TA.AperFunction,SMDPad,CuDef*%
%ADD14RoundRect,0.250000X0.475000X-0.337500X0.475000X0.337500X-0.475000X0.337500X-0.475000X-0.337500X0*%
%TD*%
%TA.AperFunction,SMDPad,CuDef*%
%ADD15RoundRect,0.250001X-0.462499X-0.624999X0.462499X-0.624999X0.462499X0.624999X-0.462499X0.624999X0*%
%TD*%
%TA.AperFunction,ComponentPad*%
%ADD16C,0.650000*%
%TD*%
%TA.AperFunction,SMDPad,CuDef*%
%ADD17R,2.100000X1.900000*%
%TD*%
%TA.AperFunction,SMDPad,CuDef*%
%ADD18R,2.000000X0.400000*%
%TD*%
%TA.AperFunction,ComponentPad*%
%ADD19RoundRect,0.250000X0.725000X-0.600000X0.725000X0.600000X-0.725000X0.600000X-0.725000X-0.600000X0*%
%TD*%
%TA.AperFunction,ComponentPad*%
%ADD20O,1.950000X1.700000*%
%TD*%
%TA.AperFunction,ViaPad*%
%ADD21C,1.200000*%
%TD*%
%TA.AperFunction,Conductor*%
%ADD22C,0.381000*%
%TD*%
G04 APERTURE END LIST*
D10*
%TO.P,C1,1*%
%TO.N,VBUS*%
X157500000Y-90762500D03*
%TO.P,C1,2*%
%TO.N,GND*%
X157500000Y-92837500D03*
%TD*%
D11*
%TO.P,U1,1,STAT*%
%TO.N,Net-(D1-A)*%
X152150000Y-92975000D03*
%TO.P,U1,2,V_{SS}*%
%TO.N,GND*%
X153100000Y-92975000D03*
%TO.P,U1,3,V_{BAT}*%
%TO.N,Net-(J1-Pin_1)*%
X154050000Y-92975000D03*
%TO.P,U1,4,V_{DD}*%
%TO.N,VBUS*%
X154050000Y-90700000D03*
%TO.P,U1,5,PROG*%
%TO.N,Net-(U1-PROG)*%
X152150000Y-90700000D03*
%TD*%
D12*
%TO.P,D1,1,K*%
%TO.N,Net-(D1-K)*%
X154487500Y-98100000D03*
%TO.P,D1,2,A*%
%TO.N,Net-(D1-A)*%
X151512500Y-98100000D03*
%TD*%
D13*
%TO.P,R1,1*%
%TO.N,Net-(D1-K)*%
X157450000Y-98110000D03*
%TO.P,R1,2*%
%TO.N,GND*%
X160550000Y-98110000D03*
%TD*%
D14*
%TO.P,C2,1*%
%TO.N,Net-(J1-Pin_1)*%
X160400000Y-92837500D03*
%TO.P,C2,2*%
%TO.N,GND*%
X160400000Y-90762500D03*
%TD*%
D13*
%TO.P,R3,1*%
%TO.N,Net-(U1-PROG)*%
X157450000Y-88100000D03*
%TO.P,R3,2*%
%TO.N,GND*%
X160550000Y-88100000D03*
%TD*%
D15*
%TO.P,D2,1,K*%
%TO.N,Net-(D1-A)*%
X151512500Y-95500000D03*
%TO.P,D2,2,A*%
%TO.N,Net-(D2-A)*%
X154487500Y-95500000D03*
%TD*%
D13*
%TO.P,R2,1*%
%TO.N,Net-(D2-A)*%
X157450000Y-95500000D03*
%TO.P,R2,2*%
%TO.N,VBUS*%
X160550000Y-95500000D03*
%TD*%
D16*
%TO.P,J2,*%
%TO.N,*%
X147137500Y-90340000D03*
X147137500Y-94340000D03*
D17*
%TO.P,J2,0*%
%TO.N,N/C*%
X144997500Y-88350000D03*
X144997500Y-96350000D03*
D18*
%TO.P,J2,1,VBUS*%
%TO.N,VBUS*%
X148057500Y-91050000D03*
%TO.P,J2,2,D-*%
%TO.N,unconnected-(J2-D--Pad2)*%
X148057500Y-91700000D03*
%TO.P,J2,3,D+*%
%TO.N,unconnected-(J2-D+-Pad3)*%
X148057500Y-92350000D03*
%TO.P,J2,4,ID*%
%TO.N,unconnected-(J2-ID-Pad4)*%
X148057500Y-93000000D03*
%TO.P,J2,5,GND*%
%TO.N,GND*%
X148057500Y-93650000D03*
%TD*%
D19*
%TO.P,J1,1,Pin_1*%
%TO.N,Net-(J1-Pin_1)*%
X165600000Y-93950000D03*
D20*
%TO.P,J1,2,Pin_2*%
%TO.N,GND*%
X165600000Y-91450000D03*
%TD*%
D21*
%TO.N,GND*%
X162300000Y-87500000D03*
X155600000Y-89400000D03*
X165070340Y-98136236D03*
X155600000Y-91909253D03*
X151600000Y-87500000D03*
X165300000Y-87500000D03*
%TD*%
D22*
%TO.N,GND*%
X160400000Y-90762500D02*
X159937500Y-90762500D01*
X147982500Y-93700000D02*
X149500000Y-93700000D01*
X159937500Y-90762500D02*
X159100000Y-91600000D01*
%TO.N,VBUS*%
X167900000Y-86600000D02*
X167300000Y-86000000D01*
X167900000Y-94600000D02*
X167900000Y-86600000D01*
X150900000Y-86000000D02*
X163100000Y-86000000D01*
X159765336Y-89519781D02*
X162580219Y-89519781D01*
X158522617Y-90762500D02*
X159765336Y-89519781D01*
X167000000Y-95500000D02*
X167900000Y-94600000D01*
X163700000Y-88400000D02*
X163700000Y-86500000D01*
X147982500Y-91100000D02*
X148032500Y-91050000D01*
X150200000Y-90500000D02*
X150200000Y-86700000D01*
X148032500Y-91050000D02*
X149650000Y-91050000D01*
X157500000Y-90762500D02*
X158522617Y-90762500D01*
X163700000Y-86500000D02*
X164200000Y-86000000D01*
X157437500Y-90700000D02*
X157500000Y-90762500D01*
X162580219Y-89519781D02*
X163700000Y-88400000D01*
X163200000Y-86000000D02*
X163100000Y-86000000D01*
X160550000Y-95500000D02*
X167000000Y-95500000D01*
X163700000Y-86500000D02*
X163700000Y-86000000D01*
X154050000Y-90700000D02*
X157437500Y-90700000D01*
X150200000Y-86700000D02*
X150900000Y-86000000D01*
X167300000Y-86000000D02*
X164300000Y-86000000D01*
X164200000Y-86000000D02*
X164300000Y-86000000D01*
X149650000Y-91050000D02*
X150200000Y-90500000D01*
X163700000Y-86500000D02*
X163200000Y-86000000D01*
X164300000Y-86000000D02*
X163100000Y-86000000D01*
%TO.N,Net-(J1-Pin_1)*%
X159900000Y-94000000D02*
X156100000Y-94000000D01*
X162637137Y-92837500D02*
X163749637Y-93950000D01*
X160400000Y-93500000D02*
X159900000Y-94000000D01*
X155075000Y-92975000D02*
X154050000Y-92975000D01*
X160400000Y-92837500D02*
X162637137Y-92837500D01*
X163749637Y-93950000D02*
X165600000Y-93950000D01*
X160400000Y-92837500D02*
X160400000Y-93500000D01*
X156100000Y-94000000D02*
X155075000Y-92975000D01*
%TO.N,Net-(D1-K)*%
X154497500Y-98110000D02*
X154487500Y-98100000D01*
X157450000Y-98110000D02*
X154497500Y-98110000D01*
%TO.N,Net-(D1-A)*%
X152150000Y-92975000D02*
X151784929Y-92975000D01*
X151784929Y-92975000D02*
X151512500Y-93247429D01*
X151512500Y-93247429D02*
X151512500Y-95500000D01*
X151512500Y-98100000D02*
X151512500Y-95500000D01*
%TO.N,Net-(D2-A)*%
X157450000Y-95500000D02*
X154487500Y-95500000D01*
%TO.N,Net-(U1-PROG)*%
X157450000Y-88100000D02*
X153046763Y-88100000D01*
X153046763Y-88100000D02*
X152150000Y-88996763D01*
X152150000Y-88996763D02*
X152150000Y-90700000D01*
%TD*%
%TA.AperFunction,Conductor*%
%TO.N,GND*%
G36*
X156540309Y-86710685D02*
G01*
X156586064Y-86763489D01*
X156596008Y-86832647D01*
X156566983Y-86896203D01*
X156560951Y-86902681D01*
X156457289Y-87006342D01*
X156365187Y-87155663D01*
X156365185Y-87155668D01*
X156348546Y-87205880D01*
X156310001Y-87322203D01*
X156310000Y-87322206D01*
X156309405Y-87324004D01*
X156269633Y-87381449D01*
X156205117Y-87408272D01*
X156191699Y-87409000D01*
X152978701Y-87409000D01*
X152864201Y-87431776D01*
X152864200Y-87431776D01*
X152852761Y-87434051D01*
X152845203Y-87435555D01*
X152845202Y-87435555D01*
X152719457Y-87487640D01*
X152719444Y-87487647D01*
X152606276Y-87563264D01*
X152606272Y-87563267D01*
X151613269Y-88556270D01*
X151613265Y-88556276D01*
X151537644Y-88669450D01*
X151537642Y-88669453D01*
X151485556Y-88795201D01*
X151485553Y-88795211D01*
X151459000Y-88928702D01*
X151459000Y-89790466D01*
X151441733Y-89853586D01*
X151398254Y-89927105D01*
X151398254Y-89927106D01*
X151352402Y-90084926D01*
X151352401Y-90084932D01*
X151349500Y-90121798D01*
X151349500Y-91278201D01*
X151352401Y-91315067D01*
X151352402Y-91315073D01*
X151398254Y-91472893D01*
X151398255Y-91472896D01*
X151481917Y-91614362D01*
X151481923Y-91614370D01*
X151598129Y-91730576D01*
X151598140Y-91730585D01*
X151598455Y-91730771D01*
X151598650Y-91730980D01*
X151604298Y-91735361D01*
X151603591Y-91736272D01*
X151646136Y-91781843D01*
X151658637Y-91850585D01*
X151631988Y-91915173D01*
X151604078Y-91939356D01*
X151604298Y-91939639D01*
X151599092Y-91943676D01*
X151598455Y-91944229D01*
X151598140Y-91944414D01*
X151598129Y-91944423D01*
X151481923Y-92060629D01*
X151481917Y-92060637D01*
X151398255Y-92202103D01*
X151398254Y-92202106D01*
X151352402Y-92359926D01*
X151352401Y-92359932D01*
X151349979Y-92390713D01*
X151325094Y-92456001D01*
X151314042Y-92468664D01*
X150975766Y-92806939D01*
X150975765Y-92806941D01*
X150956649Y-92835552D01*
X150956647Y-92835555D01*
X150900142Y-92920120D01*
X150848056Y-93045867D01*
X150848053Y-93045877D01*
X150821500Y-93179368D01*
X150821500Y-94070545D01*
X150801815Y-94137584D01*
X150749011Y-94183339D01*
X150736509Y-94188249D01*
X150730672Y-94190183D01*
X150730660Y-94190188D01*
X150581345Y-94282288D01*
X150457289Y-94406344D01*
X150457286Y-94406348D01*
X150365187Y-94555662D01*
X150365187Y-94555663D01*
X150310001Y-94722203D01*
X150310000Y-94722204D01*
X150299500Y-94824984D01*
X150299500Y-96175015D01*
X150310000Y-96277795D01*
X150310001Y-96277796D01*
X150365186Y-96444335D01*
X150365187Y-96444337D01*
X150457286Y-96593651D01*
X150457289Y-96593655D01*
X150575953Y-96712319D01*
X150609438Y-96773642D01*
X150604454Y-96843334D01*
X150575953Y-96887681D01*
X150457289Y-97006344D01*
X150457286Y-97006348D01*
X150365187Y-97155662D01*
X150365186Y-97155664D01*
X150310001Y-97322203D01*
X150310000Y-97322204D01*
X150299500Y-97424984D01*
X150299500Y-98775015D01*
X150310000Y-98877795D01*
X150310001Y-98877797D01*
X150365186Y-99044334D01*
X150372472Y-99056146D01*
X150405938Y-99110402D01*
X150424379Y-99177795D01*
X150403457Y-99244458D01*
X150349815Y-99289228D01*
X150300400Y-99299500D01*
X145804428Y-99299500D01*
X145795582Y-99299184D01*
X145773622Y-99297613D01*
X145595442Y-99284869D01*
X145577931Y-99282351D01*
X145386212Y-99240646D01*
X145369236Y-99235662D01*
X145185390Y-99167090D01*
X145169298Y-99159740D01*
X144997095Y-99065711D01*
X144982210Y-99056146D01*
X144979789Y-99054334D01*
X144825132Y-98938558D01*
X144811762Y-98926972D01*
X144673027Y-98788237D01*
X144661441Y-98774867D01*
X144543849Y-98617784D01*
X144534288Y-98602904D01*
X144440259Y-98430701D01*
X144432909Y-98414609D01*
X144372091Y-98251551D01*
X144364334Y-98230755D01*
X144359355Y-98213797D01*
X144317647Y-98022063D01*
X144315130Y-98004556D01*
X144310037Y-97933345D01*
X144324889Y-97865072D01*
X144374294Y-97815667D01*
X144433721Y-97800499D01*
X146095371Y-97800499D01*
X146095372Y-97800499D01*
X146154983Y-97794091D01*
X146289831Y-97743796D01*
X146405046Y-97657546D01*
X146491296Y-97542331D01*
X146541591Y-97407483D01*
X146548000Y-97347873D01*
X146547999Y-95352128D01*
X146541591Y-95292517D01*
X146498575Y-95177184D01*
X146493591Y-95107492D01*
X146527076Y-95046169D01*
X146588400Y-95012685D01*
X146658091Y-95017669D01*
X146687641Y-95033532D01*
X146722476Y-95058842D01*
X146727748Y-95061189D01*
X146727759Y-95061194D01*
X146746214Y-95071371D01*
X146746263Y-95071403D01*
X146746479Y-95071548D01*
X146810130Y-95097912D01*
X146813014Y-95099151D01*
X146881001Y-95129422D01*
X146885313Y-95130823D01*
X146890725Y-95132520D01*
X146890881Y-95132007D01*
X146896708Y-95133774D01*
X146896711Y-95133776D01*
X146970431Y-95148439D01*
X146971890Y-95148740D01*
X147050736Y-95165500D01*
X147224263Y-95165500D01*
X147224264Y-95165500D01*
X147303126Y-95148736D01*
X147304551Y-95148443D01*
X147378289Y-95133776D01*
X147378294Y-95133773D01*
X147378298Y-95133773D01*
X147384127Y-95132005D01*
X147384282Y-95132516D01*
X147389755Y-95130800D01*
X147393995Y-95129423D01*
X147393995Y-95129422D01*
X147393999Y-95129422D01*
X147461994Y-95099147D01*
X147464858Y-95097917D01*
X147528521Y-95071548D01*
X147528774Y-95071378D01*
X147547242Y-95061193D01*
X147552524Y-95058842D01*
X147607663Y-95018779D01*
X147611627Y-95016018D01*
X147646153Y-94992948D01*
X147663725Y-94981208D01*
X147668370Y-94976562D01*
X147683167Y-94963923D01*
X147692910Y-94956845D01*
X147734352Y-94910817D01*
X147738783Y-94906148D01*
X147778708Y-94866225D01*
X147785840Y-94855549D01*
X147796785Y-94841477D01*
X147809022Y-94827889D01*
X147836873Y-94779647D01*
X147841133Y-94772796D01*
X147869048Y-94731021D01*
X147876346Y-94713402D01*
X147883517Y-94698859D01*
X147895786Y-94677611D01*
X147911077Y-94630548D01*
X147914432Y-94621453D01*
X147931276Y-94580789D01*
X147936215Y-94555957D01*
X147939901Y-94541835D01*
X147941558Y-94536735D01*
X147949408Y-94512576D01*
X147953927Y-94469576D01*
X147955625Y-94458373D01*
X147963000Y-94421305D01*
X147963000Y-94389761D01*
X147963679Y-94376800D01*
X147967547Y-94340000D01*
X147963679Y-94303198D01*
X147963000Y-94290237D01*
X147963000Y-94258690D01*
X147955630Y-94221647D01*
X147953925Y-94210409D01*
X147953587Y-94207190D01*
X147949408Y-94167424D01*
X147939896Y-94138151D01*
X147936215Y-94124041D01*
X147931276Y-94099211D01*
X147914433Y-94058549D01*
X147911079Y-94049457D01*
X147895786Y-94002389D01*
X147883518Y-93981140D01*
X147876343Y-93966590D01*
X147866938Y-93943883D01*
X147857500Y-93896433D01*
X147857500Y-93824499D01*
X147877185Y-93757460D01*
X147929989Y-93711705D01*
X147981500Y-93700499D01*
X148133500Y-93700499D01*
X148200539Y-93720184D01*
X148246294Y-93772988D01*
X148257500Y-93824499D01*
X148257500Y-94350000D01*
X149105328Y-94350000D01*
X149105344Y-94349999D01*
X149164872Y-94343598D01*
X149164879Y-94343596D01*
X149299586Y-94293354D01*
X149299593Y-94293350D01*
X149414687Y-94207190D01*
X149414690Y-94207187D01*
X149500850Y-94092093D01*
X149500854Y-94092086D01*
X149551096Y-93957379D01*
X149551098Y-93957372D01*
X149557499Y-93897844D01*
X149557500Y-93897827D01*
X149557500Y-93850000D01*
X149396935Y-93850000D01*
X149329896Y-93830315D01*
X149284141Y-93777511D01*
X149274197Y-93708353D01*
X149303222Y-93644797D01*
X149322624Y-93626734D01*
X149360103Y-93598675D01*
X149415046Y-93557546D01*
X149458358Y-93499687D01*
X149514291Y-93457818D01*
X149557472Y-93450027D01*
X149557500Y-93450000D01*
X149557500Y-93402172D01*
X149557499Y-93402160D01*
X149550880Y-93340604D01*
X149550880Y-93314090D01*
X149551590Y-93307485D01*
X149551591Y-93307483D01*
X149558000Y-93247873D01*
X149557999Y-92752128D01*
X149551591Y-92692517D01*
X149551589Y-92692513D01*
X149551132Y-92688255D01*
X149551132Y-92661745D01*
X149551589Y-92657486D01*
X149551591Y-92657483D01*
X149558000Y-92597873D01*
X149557999Y-92102128D01*
X149551591Y-92042517D01*
X149551589Y-92042513D01*
X149551132Y-92038255D01*
X149551133Y-92011745D01*
X149555479Y-91971319D01*
X149558000Y-91947873D01*
X149558000Y-91865000D01*
X149577685Y-91797961D01*
X149630489Y-91752206D01*
X149682000Y-91741000D01*
X149718060Y-91741000D01*
X149807870Y-91723134D01*
X149851557Y-91714445D01*
X149977311Y-91662356D01*
X149996550Y-91649501D01*
X150090487Y-91586735D01*
X150736735Y-90940487D01*
X150812356Y-90827312D01*
X150864445Y-90701558D01*
X150871337Y-90666907D01*
X150878292Y-90631945D01*
X150878292Y-90631942D01*
X150891000Y-90568058D01*
X150891000Y-87037584D01*
X150910685Y-86970545D01*
X150927319Y-86949903D01*
X151149903Y-86727319D01*
X151211226Y-86693834D01*
X151237584Y-86691000D01*
X156473270Y-86691000D01*
X156540309Y-86710685D01*
G37*
%TD.AperFunction*%
%TA.AperFunction,Conductor*%
G36*
X156258737Y-88810685D02*
G01*
X156304492Y-88863489D01*
X156309404Y-88875996D01*
X156310001Y-88877797D01*
X156365186Y-89044334D01*
X156457288Y-89193656D01*
X156581344Y-89317712D01*
X156730666Y-89409814D01*
X156861453Y-89453152D01*
X156918896Y-89492923D01*
X156945719Y-89557439D01*
X156933404Y-89626215D01*
X156885861Y-89677415D01*
X156861452Y-89688563D01*
X156705666Y-89740186D01*
X156705663Y-89740187D01*
X156556342Y-89832289D01*
X156432291Y-89956340D01*
X156427886Y-89961912D01*
X156370863Y-90002288D01*
X156330620Y-90009000D01*
X154918638Y-90009000D01*
X154851599Y-89989315D01*
X154805844Y-89936511D01*
X154804840Y-89934254D01*
X154801746Y-89927106D01*
X154800204Y-89924499D01*
X154718081Y-89785635D01*
X154718079Y-89785633D01*
X154718076Y-89785629D01*
X154601870Y-89669423D01*
X154601862Y-89669417D01*
X154509007Y-89614503D01*
X154460398Y-89585756D01*
X154460397Y-89585755D01*
X154460396Y-89585755D01*
X154460393Y-89585754D01*
X154302573Y-89539902D01*
X154302567Y-89539901D01*
X154265701Y-89537000D01*
X154265694Y-89537000D01*
X153834306Y-89537000D01*
X153834298Y-89537000D01*
X153797432Y-89539901D01*
X153797426Y-89539902D01*
X153639606Y-89585754D01*
X153639603Y-89585755D01*
X153498137Y-89669417D01*
X153498129Y-89669423D01*
X153381923Y-89785629D01*
X153381917Y-89785637D01*
X153298255Y-89927103D01*
X153298254Y-89927106D01*
X153252402Y-90084926D01*
X153252401Y-90084932D01*
X153249500Y-90121798D01*
X153249500Y-91278201D01*
X153252401Y-91315067D01*
X153252402Y-91315073D01*
X153298254Y-91472893D01*
X153298255Y-91472896D01*
X153381917Y-91614362D01*
X153386702Y-91620531D01*
X153385018Y-91621836D01*
X153413246Y-91673531D01*
X153408262Y-91743223D01*
X153376234Y-91790961D01*
X153350000Y-91815202D01*
X153350000Y-92080684D01*
X153332733Y-92143804D01*
X153298254Y-92202105D01*
X153298254Y-92202106D01*
X153252402Y-92359926D01*
X153252401Y-92359932D01*
X153249500Y-92396798D01*
X153249500Y-93553201D01*
X153252401Y-93590067D01*
X153252402Y-93590073D01*
X153298254Y-93747893D01*
X153298255Y-93747896D01*
X153298256Y-93747898D01*
X153332732Y-93806194D01*
X153350000Y-93869314D01*
X153350000Y-94134795D01*
X153350001Y-94134795D01*
X153352488Y-94134600D01*
X153384216Y-94125382D01*
X153454086Y-94125581D01*
X153512756Y-94163522D01*
X153541601Y-94227160D01*
X153531461Y-94296290D01*
X153506495Y-94332139D01*
X153432286Y-94406348D01*
X153340187Y-94555662D01*
X153340187Y-94555663D01*
X153285001Y-94722203D01*
X153285000Y-94722204D01*
X153274500Y-94824984D01*
X153274500Y-96175015D01*
X153285000Y-96277795D01*
X153285001Y-96277796D01*
X153340186Y-96444335D01*
X153340187Y-96444337D01*
X153432286Y-96593651D01*
X153432289Y-96593655D01*
X153550953Y-96712319D01*
X153584438Y-96773642D01*
X153579454Y-96843334D01*
X153550953Y-96887681D01*
X153432289Y-97006344D01*
X153432286Y-97006348D01*
X153340187Y-97155662D01*
X153340186Y-97155664D01*
X153285001Y-97322203D01*
X153285000Y-97322204D01*
X153274500Y-97424984D01*
X153274500Y-98775015D01*
X153285000Y-98877795D01*
X153285001Y-98877797D01*
X153340186Y-99044334D01*
X153347472Y-99056146D01*
X153380938Y-99110402D01*
X153399379Y-99177795D01*
X153378457Y-99244458D01*
X153324815Y-99289228D01*
X153275400Y-99299500D01*
X152724600Y-99299500D01*
X152657561Y-99279815D01*
X152611806Y-99227011D01*
X152601862Y-99157853D01*
X152619062Y-99110402D01*
X152659814Y-99044334D01*
X152714999Y-98877797D01*
X152725500Y-98775008D01*
X152725500Y-97424992D01*
X152714999Y-97322203D01*
X152659814Y-97155666D01*
X152567711Y-97006345D01*
X152449047Y-96887681D01*
X152415562Y-96826358D01*
X152420546Y-96756666D01*
X152449047Y-96712319D01*
X152567711Y-96593655D01*
X152659814Y-96444334D01*
X152714999Y-96277797D01*
X152725500Y-96175008D01*
X152725500Y-94824992D01*
X152714999Y-94722203D01*
X152659814Y-94555666D01*
X152659813Y-94555665D01*
X152659813Y-94555663D01*
X152659812Y-94555662D01*
X152567713Y-94406348D01*
X152567710Y-94406344D01*
X152468611Y-94307245D01*
X152435126Y-94245922D01*
X152440110Y-94176230D01*
X152481982Y-94120297D01*
X152521695Y-94100488D01*
X152560398Y-94089244D01*
X152561181Y-94088781D01*
X152562369Y-94088079D01*
X152564112Y-94087636D01*
X152567557Y-94086146D01*
X152567797Y-94086701D01*
X152630093Y-94070895D01*
X152682397Y-94086253D01*
X152682644Y-94085684D01*
X152687255Y-94087679D01*
X152688612Y-94088078D01*
X152689801Y-94088781D01*
X152689806Y-94088783D01*
X152847505Y-94134599D01*
X152847511Y-94134600D01*
X152849998Y-94134795D01*
X152850000Y-94134795D01*
X152850000Y-93869314D01*
X152867267Y-93806194D01*
X152901744Y-93747898D01*
X152947598Y-93590069D01*
X152950500Y-93553194D01*
X152950500Y-92396806D01*
X152947598Y-92359931D01*
X152943900Y-92347204D01*
X152908438Y-92225142D01*
X152901744Y-92202102D01*
X152867267Y-92143804D01*
X152850000Y-92080684D01*
X152850000Y-91815202D01*
X152823765Y-91790961D01*
X152787887Y-91731007D01*
X152790118Y-91661173D01*
X152814533Y-91621488D01*
X152813298Y-91620531D01*
X152818075Y-91614370D01*
X152818081Y-91614365D01*
X152901744Y-91472898D01*
X152947598Y-91315069D01*
X152950500Y-91278194D01*
X152950500Y-90121806D01*
X152947598Y-90084931D01*
X152937285Y-90049435D01*
X152910240Y-89956344D01*
X152901744Y-89927102D01*
X152858267Y-89853586D01*
X152841000Y-89790466D01*
X152841000Y-89334347D01*
X152860685Y-89267308D01*
X152877319Y-89246666D01*
X153296666Y-88827319D01*
X153357989Y-88793834D01*
X153384347Y-88791000D01*
X156191698Y-88791000D01*
X156258737Y-88810685D01*
G37*
%TD.AperFunction*%
%TA.AperFunction,Conductor*%
G36*
X159342914Y-94710685D02*
G01*
X159388669Y-94763489D01*
X159398273Y-94821763D01*
X159399661Y-94821834D01*
X159399500Y-94824996D01*
X159399500Y-96175001D01*
X159399501Y-96175018D01*
X159410000Y-96277796D01*
X159410001Y-96277799D01*
X159465185Y-96444331D01*
X159465186Y-96444334D01*
X159557287Y-96593655D01*
X159557289Y-96593657D01*
X159681304Y-96717672D01*
X159714789Y-96778995D01*
X159709805Y-96848687D01*
X159681305Y-96893034D01*
X159557682Y-97016657D01*
X159465643Y-97165875D01*
X159465641Y-97165880D01*
X159410494Y-97332302D01*
X159410493Y-97332309D01*
X159400000Y-97435013D01*
X159400000Y-97860000D01*
X161699999Y-97860000D01*
X161699999Y-97435028D01*
X161699998Y-97435013D01*
X161689505Y-97332302D01*
X161634358Y-97165880D01*
X161634356Y-97165875D01*
X161542315Y-97016654D01*
X161418695Y-96893034D01*
X161385210Y-96831711D01*
X161390194Y-96762019D01*
X161418691Y-96717676D01*
X161542712Y-96593656D01*
X161634814Y-96444334D01*
X161689999Y-96277797D01*
X161689999Y-96277793D01*
X161690595Y-96275996D01*
X161730367Y-96218551D01*
X161794883Y-96191728D01*
X161808301Y-96191000D01*
X167068060Y-96191000D01*
X167157870Y-96173134D01*
X167201557Y-96164445D01*
X167327311Y-96112356D01*
X167440487Y-96036735D01*
X168436735Y-95040487D01*
X168512356Y-94927311D01*
X168521222Y-94905908D01*
X168560939Y-94810021D01*
X168604779Y-94755617D01*
X168671074Y-94733552D01*
X168738773Y-94750831D01*
X168786384Y-94801968D01*
X168799500Y-94857473D01*
X168799500Y-97795572D01*
X168799184Y-97804419D01*
X168784869Y-98004557D01*
X168782351Y-98022068D01*
X168740646Y-98213787D01*
X168735662Y-98230763D01*
X168667090Y-98414609D01*
X168659740Y-98430701D01*
X168565711Y-98602904D01*
X168556146Y-98617789D01*
X168438558Y-98774867D01*
X168426972Y-98788237D01*
X168288237Y-98926972D01*
X168274867Y-98938558D01*
X168117789Y-99056146D01*
X168102904Y-99065711D01*
X167930701Y-99159740D01*
X167914609Y-99167090D01*
X167730763Y-99235662D01*
X167713787Y-99240646D01*
X167522068Y-99282351D01*
X167504557Y-99284869D01*
X167323779Y-99297799D01*
X167304417Y-99299184D01*
X167295572Y-99299500D01*
X161705182Y-99299500D01*
X161638143Y-99279815D01*
X161592388Y-99227011D01*
X161582444Y-99157853D01*
X161599643Y-99110403D01*
X161634356Y-99054124D01*
X161634358Y-99054119D01*
X161689505Y-98887697D01*
X161689506Y-98887690D01*
X161699999Y-98784986D01*
X161700000Y-98784973D01*
X161700000Y-98360000D01*
X159400001Y-98360000D01*
X159400001Y-98784986D01*
X159410494Y-98887697D01*
X159465641Y-99054119D01*
X159465643Y-99054124D01*
X159500357Y-99110403D01*
X159518797Y-99177795D01*
X159497875Y-99244459D01*
X159444233Y-99289229D01*
X159394818Y-99299500D01*
X158605769Y-99299500D01*
X158538730Y-99279815D01*
X158492975Y-99227011D01*
X158483031Y-99157853D01*
X158500229Y-99110405D01*
X158534814Y-99054334D01*
X158589999Y-98887797D01*
X158600500Y-98785009D01*
X158600499Y-97434992D01*
X158599477Y-97424992D01*
X158589999Y-97332203D01*
X158589998Y-97332200D01*
X158586685Y-97322203D01*
X158534814Y-97165666D01*
X158442712Y-97016344D01*
X158319049Y-96892681D01*
X158285564Y-96831358D01*
X158290548Y-96761666D01*
X158319049Y-96717319D01*
X158324049Y-96712319D01*
X158442712Y-96593656D01*
X158534814Y-96444334D01*
X158589999Y-96277797D01*
X158600500Y-96175009D01*
X158600499Y-94824992D01*
X158600498Y-94824984D01*
X158600338Y-94821836D01*
X158601838Y-94821759D01*
X158613561Y-94758858D01*
X158661465Y-94707996D01*
X158724124Y-94691000D01*
X159275875Y-94691000D01*
X159342914Y-94710685D01*
G37*
%TD.AperFunction*%
%TA.AperFunction,Conductor*%
G36*
X159130585Y-91234263D02*
G01*
X159186519Y-91276133D01*
X159204960Y-91311441D01*
X159240642Y-91419121D01*
X159240643Y-91419124D01*
X159332684Y-91568345D01*
X159456655Y-91692316D01*
X159456659Y-91692319D01*
X159459656Y-91694168D01*
X159461279Y-91695972D01*
X159462323Y-91696798D01*
X159462181Y-91696976D01*
X159506381Y-91746116D01*
X159517602Y-91815079D01*
X159489759Y-91879161D01*
X159459661Y-91905241D01*
X159456349Y-91907283D01*
X159456343Y-91907288D01*
X159332289Y-92031342D01*
X159240187Y-92180663D01*
X159240185Y-92180668D01*
X159240115Y-92180880D01*
X159185001Y-92347203D01*
X159185001Y-92347204D01*
X159185000Y-92347204D01*
X159174500Y-92449983D01*
X159174500Y-92449991D01*
X159174500Y-92835555D01*
X159174501Y-93185000D01*
X159154817Y-93252039D01*
X159102013Y-93297794D01*
X159050501Y-93309000D01*
X158849000Y-93309000D01*
X158781961Y-93289315D01*
X158736206Y-93236511D01*
X158725000Y-93185000D01*
X158725000Y-93087500D01*
X156247938Y-93087500D01*
X156246203Y-93088447D01*
X156232988Y-93087500D01*
X156223639Y-93087500D01*
X156223639Y-93086830D01*
X156176512Y-93083453D01*
X156132180Y-93054958D01*
X155515492Y-92438269D01*
X155515485Y-92438263D01*
X155402312Y-92362644D01*
X155402309Y-92362642D01*
X155276561Y-92310556D01*
X155276549Y-92310553D01*
X155227341Y-92300765D01*
X155227340Y-92300765D01*
X155143060Y-92284000D01*
X155143058Y-92284000D01*
X154918638Y-92284000D01*
X154851599Y-92264315D01*
X154805844Y-92211511D01*
X154804840Y-92209254D01*
X154801746Y-92202106D01*
X154784565Y-92173055D01*
X154718081Y-92060635D01*
X154718079Y-92060633D01*
X154718076Y-92060629D01*
X154601870Y-91944423D01*
X154601867Y-91944421D01*
X154601865Y-91944419D01*
X154601549Y-91944232D01*
X154601353Y-91944022D01*
X154595702Y-91939639D01*
X154596409Y-91938727D01*
X154553866Y-91893164D01*
X154541362Y-91824423D01*
X154568006Y-91759833D01*
X154595921Y-91735644D01*
X154595702Y-91735361D01*
X154600911Y-91731320D01*
X154601550Y-91730767D01*
X154601865Y-91730581D01*
X154718081Y-91614365D01*
X154801744Y-91472898D01*
X154801744Y-91472894D01*
X154801746Y-91472893D01*
X154804840Y-91465746D01*
X154849533Y-91412041D01*
X154916167Y-91391025D01*
X154918638Y-91391000D01*
X156253502Y-91391000D01*
X156320541Y-91410685D01*
X156359040Y-91449902D01*
X156432288Y-91568656D01*
X156556344Y-91692712D01*
X156558700Y-91694165D01*
X156559653Y-91694753D01*
X156561445Y-91696746D01*
X156562011Y-91697193D01*
X156561934Y-91697289D01*
X156606379Y-91746699D01*
X156617603Y-91815661D01*
X156589761Y-91879744D01*
X156559665Y-91905826D01*
X156556660Y-91907679D01*
X156556655Y-91907683D01*
X156432684Y-92031654D01*
X156340643Y-92180875D01*
X156340641Y-92180880D01*
X156285494Y-92347302D01*
X156285493Y-92347309D01*
X156275000Y-92450013D01*
X156275000Y-92587500D01*
X158724999Y-92587500D01*
X158724999Y-92450028D01*
X158724998Y-92450013D01*
X158714505Y-92347302D01*
X158659358Y-92180880D01*
X158659356Y-92180875D01*
X158567315Y-92031654D01*
X158443344Y-91907683D01*
X158443341Y-91907681D01*
X158440339Y-91905829D01*
X158438713Y-91904021D01*
X158437677Y-91903202D01*
X158437817Y-91903024D01*
X158393617Y-91853880D01*
X158382397Y-91784917D01*
X158410243Y-91720836D01*
X158440344Y-91694754D01*
X158443656Y-91692712D01*
X158567712Y-91568656D01*
X158617101Y-91488582D01*
X158669046Y-91441858D01*
X158698445Y-91432062D01*
X158724174Y-91426945D01*
X158849928Y-91374856D01*
X158865509Y-91364445D01*
X158963104Y-91299235D01*
X158999573Y-91262765D01*
X159060893Y-91229280D01*
X159130585Y-91234263D01*
G37*
%TD.AperFunction*%
%TA.AperFunction,Conductor*%
G36*
X167029455Y-86710685D02*
G01*
X167050097Y-86727319D01*
X167172681Y-86849903D01*
X167206166Y-86911226D01*
X167209000Y-86937584D01*
X167209000Y-90872385D01*
X167189315Y-90939424D01*
X167136511Y-90985179D01*
X167067353Y-90995123D01*
X167003797Y-90966098D01*
X166974515Y-90928680D01*
X166879620Y-90742442D01*
X166754727Y-90570540D01*
X166754723Y-90570535D01*
X166604464Y-90420276D01*
X166604459Y-90420272D01*
X166432557Y-90295379D01*
X166243217Y-90198904D01*
X166041128Y-90133242D01*
X165850000Y-90102969D01*
X165850000Y-91045854D01*
X165783343Y-91007370D01*
X165662535Y-90975000D01*
X165537465Y-90975000D01*
X165416657Y-91007370D01*
X165350000Y-91045854D01*
X165350000Y-90102969D01*
X165158872Y-90133242D01*
X165158869Y-90133242D01*
X164956782Y-90198904D01*
X164767442Y-90295379D01*
X164595540Y-90420272D01*
X164595535Y-90420276D01*
X164445276Y-90570535D01*
X164445272Y-90570540D01*
X164320379Y-90742442D01*
X164223904Y-90931782D01*
X164158242Y-91133870D01*
X164158242Y-91133873D01*
X164147769Y-91200000D01*
X165195854Y-91200000D01*
X165157370Y-91266657D01*
X165125000Y-91387465D01*
X165125000Y-91512535D01*
X165157370Y-91633343D01*
X165195854Y-91700000D01*
X164147769Y-91700000D01*
X164158242Y-91766126D01*
X164158242Y-91766129D01*
X164223904Y-91968217D01*
X164320379Y-92157557D01*
X164445272Y-92329459D01*
X164445276Y-92329464D01*
X164584143Y-92468331D01*
X164617628Y-92529654D01*
X164612644Y-92599346D01*
X164570772Y-92655279D01*
X164561559Y-92661551D01*
X164406342Y-92757289D01*
X164282289Y-92881342D01*
X164190187Y-93030663D01*
X164190184Y-93030671D01*
X164158177Y-93127258D01*
X164118404Y-93184702D01*
X164053888Y-93211524D01*
X163985112Y-93199208D01*
X163952791Y-93175933D01*
X163077629Y-92300769D01*
X163077622Y-92300763D01*
X162964449Y-92225144D01*
X162964446Y-92225142D01*
X162838698Y-92173056D01*
X162838688Y-92173053D01*
X162705197Y-92146500D01*
X162705195Y-92146500D01*
X161607947Y-92146500D01*
X161540908Y-92126815D01*
X161502409Y-92087599D01*
X161467712Y-92031344D01*
X161343656Y-91907288D01*
X161340342Y-91905243D01*
X161338546Y-91903248D01*
X161337989Y-91902807D01*
X161338064Y-91902711D01*
X161293618Y-91853297D01*
X161282397Y-91784334D01*
X161310240Y-91720252D01*
X161340348Y-91694165D01*
X161343342Y-91692318D01*
X161467315Y-91568345D01*
X161559356Y-91419124D01*
X161559358Y-91419119D01*
X161614505Y-91252697D01*
X161614506Y-91252690D01*
X161624999Y-91149986D01*
X161625000Y-91149973D01*
X161625000Y-91012500D01*
X160274000Y-91012500D01*
X160206961Y-90992815D01*
X160161206Y-90940011D01*
X160150000Y-90888500D01*
X160150000Y-90636500D01*
X160169685Y-90569461D01*
X160222489Y-90523706D01*
X160274000Y-90512500D01*
X161624999Y-90512500D01*
X161624999Y-90375028D01*
X161624997Y-90375008D01*
X161622176Y-90347381D01*
X161634946Y-90278689D01*
X161682828Y-90227805D01*
X161745534Y-90210781D01*
X162648279Y-90210781D01*
X162738089Y-90192915D01*
X162781776Y-90184226D01*
X162892999Y-90138156D01*
X162907528Y-90132138D01*
X162907531Y-90132136D01*
X162908923Y-90131206D01*
X163020706Y-90056516D01*
X164236735Y-88840487D01*
X164312356Y-88727312D01*
X164364445Y-88601558D01*
X164373452Y-88556276D01*
X164391000Y-88468058D01*
X164391000Y-86837583D01*
X164410685Y-86770544D01*
X164427319Y-86749902D01*
X164449902Y-86727319D01*
X164511225Y-86693834D01*
X164537583Y-86691000D01*
X166962416Y-86691000D01*
X167029455Y-86710685D01*
G37*
%TD.AperFunction*%
%TA.AperFunction,Conductor*%
G36*
X159641016Y-86710685D02*
G01*
X159686771Y-86763489D01*
X159696715Y-86832647D01*
X159667690Y-86896203D01*
X159661658Y-86902681D01*
X159557684Y-87006654D01*
X159465643Y-87155875D01*
X159465641Y-87155880D01*
X159410494Y-87322302D01*
X159410493Y-87322309D01*
X159400000Y-87425013D01*
X159400000Y-87850000D01*
X161699999Y-87850000D01*
X161699999Y-87425028D01*
X161699998Y-87425013D01*
X161689505Y-87322302D01*
X161634358Y-87155880D01*
X161634356Y-87155875D01*
X161542315Y-87006654D01*
X161438342Y-86902681D01*
X161404857Y-86841358D01*
X161409841Y-86771666D01*
X161451713Y-86715733D01*
X161517177Y-86691316D01*
X161526023Y-86691000D01*
X162862415Y-86691000D01*
X162929454Y-86710685D01*
X162950094Y-86727317D01*
X162972679Y-86749901D01*
X163006166Y-86811223D01*
X163009000Y-86837584D01*
X163009000Y-88062416D01*
X162989315Y-88129455D01*
X162972681Y-88150097D01*
X162330316Y-88792462D01*
X162268993Y-88825947D01*
X162242635Y-88828781D01*
X161824000Y-88828781D01*
X161756961Y-88809096D01*
X161711206Y-88756292D01*
X161700000Y-88704781D01*
X161700000Y-88350000D01*
X159400001Y-88350000D01*
X159400001Y-88774989D01*
X159407511Y-88848502D01*
X159394741Y-88917195D01*
X159353047Y-88964203D01*
X159324850Y-88983044D01*
X159324845Y-88983048D01*
X158532746Y-89775147D01*
X158471423Y-89808632D01*
X158401731Y-89803648D01*
X158379969Y-89793005D01*
X158294340Y-89740189D01*
X158294335Y-89740187D01*
X158294334Y-89740186D01*
X158127797Y-89685001D01*
X158123888Y-89684601D01*
X158101012Y-89682264D01*
X158036321Y-89655866D01*
X157996171Y-89598684D01*
X157993310Y-89528873D01*
X158028646Y-89468597D01*
X158074611Y-89441201D01*
X158169334Y-89409814D01*
X158318656Y-89317712D01*
X158442712Y-89193656D01*
X158534814Y-89044334D01*
X158589999Y-88877797D01*
X158600500Y-88775009D01*
X158600499Y-87424992D01*
X158598865Y-87409000D01*
X158589999Y-87322203D01*
X158589998Y-87322200D01*
X158535478Y-87157671D01*
X158534814Y-87155666D01*
X158442712Y-87006344D01*
X158339049Y-86902681D01*
X158305564Y-86841358D01*
X158310548Y-86771666D01*
X158352420Y-86715733D01*
X158417884Y-86691316D01*
X158426730Y-86691000D01*
X159573977Y-86691000D01*
X159641016Y-86710685D01*
G37*
%TD.AperFunction*%
%TD*%
M02*
